<svg width="980" height="420" viewBox="0 0 980 420" fill="none" xmlns="http://www.w3.org/2000/svg">
  <rect width="980" height="420" rx="28" fill="#F9FBFE"/>
  <text x="490" y="44" text-anchor="middle" font-family="Arial" font-size="28" font-weight="700" fill="#112031">Exchange Routing Patterns</text>

  <g font-family="Arial">
    <rect x="44" y="90" width="200" height="280" rx="24" fill="#FFFFFF" stroke="#112031" stroke-width="2"/>
    <text x="144" y="126" text-anchor="middle" font-size="24" font-weight="700" fill="#112031">Direct</text>
    <circle cx="144" cy="174" r="28" fill="#FFF4D6" stroke="#E9A820" stroke-width="2"/>
    <text x="144" y="181" text-anchor="middle" font-size="14" font-weight="700" fill="#112031">Ex</text>
    <rect x="82" y="264" width="60" height="38" rx="12" fill="#D8F3DC" stroke="#2A9D8F" stroke-width="2"/>
    <rect x="146" y="264" width="60" height="38" rx="12" fill="#D8F3DC" stroke="#2A9D8F" stroke-width="2"/>
    <text x="112" y="288" text-anchor="middle" font-size="14" fill="#112031">error</text>
    <text x="176" y="288" text-anchor="middle" font-size="14" fill="#112031">info</text>
    <path d="M144 202V264" stroke="#E9A820" stroke-width="4"/>
    <text x="144" y="334" text-anchor="middle" font-size="15" fill="#274C77">Exact routing key match</text>

    <rect x="278" y="90" width="200" height="280" rx="24" fill="#FFFFFF" stroke="#112031" stroke-width="2"/>
    <text x="378" y="126" text-anchor="middle" font-size="24" font-weight="700" fill="#112031">Fanout</text>
    <circle cx="378" cy="174" r="28" fill="#FFF4D6" stroke="#E9A820" stroke-width="2"/>
    <text x="378" y="181" text-anchor="middle" font-size="14" font-weight="700" fill="#112031">Ex</text>
    <rect x="306" y="264" width="52" height="38" rx="12" fill="#D8F3DC" stroke="#2A9D8F" stroke-width="2"/>
    <rect x="352" y="264" width="52" height="38" rx="12" fill="#D8F3DC" stroke="#2A9D8F" stroke-width="2"/>
    <rect x="398" y="264" width="52" height="38" rx="12" fill="#D8F3DC" stroke="#2A9D8F" stroke-width="2"/>
    <path d="M378 202L332 264" stroke="#E9A820" stroke-width="4"/>
    <path d="M378 202V264" stroke="#E9A820" stroke-width="4"/>
    <path d="M378 202L424 264" stroke="#E9A820" stroke-width="4"/>
    <text x="378" y="334" text-anchor="middle" font-size="15" fill="#274C77">Broadcast to all bound queues</text>

    <rect x="512" y="90" width="200" height="280" rx="24" fill="#FFFFFF" stroke="#112031" stroke-width="2"/>
    <text x="612" y="126" text-anchor="middle" font-size="24" font-weight="700" fill="#112031">Topic</text>
    <circle cx="612" cy="174" r="28" fill="#FFF4D6" stroke="#E9A820" stroke-width="2"/>
    <text x="612" y="181" text-anchor="middle" font-size="14" font-weight="700" fill="#112031">Ex</text>
    <rect x="550" y="264" width="60" height="38" rx="12" fill="#D8F3DC" stroke="#2A9D8F" stroke-width="2"/>
    <rect x="614" y="264" width="100" height="38" rx="12" fill="#D8F3DC" stroke="#2A9D8F" stroke-width="2"/>
    <text x="580" y="288" text-anchor="middle" font-size="13" fill="#112031">order.*</text>
    <text x="664" y="288" text-anchor="middle" font-size="13" fill="#112031">payment.#</text>
    <path d="M612 202L580 264" stroke="#E9A820" stroke-width="4"/>
    <path d="M612 202L662 264" stroke="#E9A820" stroke-width="4"/>
    <text x="612" y="334" text-anchor="middle" font-size="15" fill="#274C77">Pattern-based routing</text>

    <rect x="746" y="90" width="190" height="280" rx="24" fill="#FFFFFF" stroke="#112031" stroke-width="2"/>
    <text x="841" y="126" text-anchor="middle" font-size="24" font-weight="700" fill="#112031">Headers</text>
    <circle cx="841" cy="174" r="28" fill="#FFF4D6" stroke="#E9A820" stroke-width="2"/>
    <text x="841" y="181" text-anchor="middle" font-size="14" font-weight="700" fill="#112031">Ex</text>
    <rect x="782" y="264" width="118" height="38" rx="12" fill="#D8F3DC" stroke="#2A9D8F" stroke-width="2"/>
    <text x="841" y="288" text-anchor="middle" font-size="13" fill="#112031">x-match headers</text>
    <path d="M841 202V264" stroke="#E9A820" stroke-width="4"/>
    <text x="841" y="334" text-anchor="middle" font-size="15" fill="#274C77">Route by metadata headers</text>
  </g>
</svg>
