<svg width="980" height="360" viewBox="0 0 980 360" fill="none" xmlns="http://www.w3.org/2000/svg">
  <rect width="980" height="360" rx="28" fill="#FFF9F7"/>
  <rect x="44" y="138" width="190" height="92" rx="24" fill="#D8F3DC" stroke="#2A9D8F" stroke-width="2"/>
  <rect x="312" y="138" width="190" height="92" rx="24" fill="#D8ECFF" stroke="#3A86FF" stroke-width="2"/>
  <rect x="580" y="48" width="190" height="92" rx="24" fill="#FFF4D6" stroke="#E9A820" stroke-width="2"/>
  <rect x="580" y="228" width="190" height="92" rx="24" fill="#FFE3E3" stroke="#D9485F" stroke-width="2"/>
  <rect x="832" y="138" width="110" height="92" rx="24" fill="#FFFFFF" stroke="#112031" stroke-width="2"/>

  <g font-family="Arial" fill="#112031">
    <text x="139" y="176" text-anchor="middle" font-size="26" font-weight="700">Main Queue</text>
    <text x="407" y="176" text-anchor="middle" font-size="26" font-weight="700">Consumer</text>
    <text x="675" y="86" text-anchor="middle" font-size="24" font-weight="700">Retry Queue</text>
    <text x="675" y="266" text-anchor="middle" font-size="24" font-weight="700">DLQ</text>
    <text x="887" y="176" text-anchor="middle" font-size="24" font-weight="700">Ops</text>
  </g>

  <path d="M234 184H312" stroke="#2A9D8F" stroke-width="4"/>
  <path d="M502 154H580" stroke="#E9A820" stroke-width="4"/>
  <path d="M502 214H580" stroke="#D9485F" stroke-width="4"/>
  <path d="M770 94L832 154" stroke="#E9A820" stroke-width="4"/>
  <path d="M770 274L832 214" stroke="#D9485F" stroke-width="4"/>
  <path d="M675 140V228" stroke="#112031" stroke-width="3" stroke-dasharray="8 8"/>

  <text x="542" y="144" text-anchor="middle" font-family="Arial" font-size="16" fill="#274C77">temporary failure</text>
  <text x="542" y="236" text-anchor="middle" font-family="Arial" font-size="16" fill="#274C77">poison message</text>
</svg>
